<svg width="100" height="100" viewBox="0 0 100 100" fill="none" xmlns="http://www.w3.org/2000/svg">
<g clip-path="url(#clip0)">
<path fill-rule="evenodd" clip-rule="evenodd" d="M50 -0.0249023C77.5958 -0.0249023 100 22.3793 100 49.9751C100 77.5709 77.5958 99.9751 50 99.9751C22.4042 99.9751 0 77.5709 0 49.9751C0 22.3793 22.4042 -0.0249023 50 -0.0249023ZM74.9958 83.3043C85.1167 75.7001 91.6667 63.5959 91.6667 49.9751C91.6667 26.9793 72.9958 8.30843 50 8.30843C27.0042 8.30843 8.33333 26.9793 8.33333 49.9751C8.33333 65.3959 16.7292 78.8751 29.2 86.0793V69.3168C29.2 66.9168 27.7 66.1293 24.4208 63.5043C22 61.5626 20.3333 58.5293 20.6417 55.4418C21.5125 46.6334 23.6333 29.1418 23.6333 29.1418H25.7167V49.9751H29.2L29.975 29.1418H32.0833L32.6833 49.9751H36.1667L37.0042 29.1418H38.9583L39.65 49.9751H43.1292V29.1418H45.0375C45.0375 29.1418 47.3792 46.5209 48.3417 55.3584C48.6792 58.4876 46.9208 61.5793 44.4458 63.5376C41.15 66.1459 39.65 66.8959 39.65 69.3334V90.3418C42.9583 91.1918 46.425 91.6418 50 91.6418C55.1208 91.6418 60.0292 90.7168 64.5667 89.0209V74.9751C64.5667 74.9751 60.4958 74.9626 56 74.9751C58.7833 50.6834 66.775 29.1418 72.1792 29.1418C73.7333 29.1418 74.9708 30.3793 74.9833 32.0959C75.0042 35.4376 75 61.6418 74.9958 83.3043Z" fill="url(#paint0_linear)"/>
</g>
<defs>
<linearGradient id="paint0_linear" x1="50" y1="-0.0249023" x2="50" y2="127" gradientUnits="userSpaceOnUse">
<stop stop-color="#FF4141"/>
<stop offset="1" stop-color="#363333" stop-opacity="0.35"/>
</linearGradient>
<clipPath id="clip0">
<rect width="100" height="100" fill="white"/>
</clipPath>
</defs>
</svg>
