 <svg width="400" height="130" viewBox="0 0 514 160" fill="none" xmlns="http://www.w3.org/2000/svg">
<path className ="first" d="M136.27 114.02C136.893 114.02 137.205 114.863 137.205 116.55C137.205 117.467 136.82 118.585 136.05 119.905C135.28 121.188 134.272 122.38 133.025 123.48C131.815 124.543 130.458 125.423 128.955 126.12C127.452 126.817 126.022 127.165 124.665 127.165C123.308 127.165 122.245 126.908 121.475 126.395C120.705 125.882 120.1 125.185 119.66 124.305C119.037 123.058 118.523 120.693 118.12 117.21C117.717 113.69 117.313 111.233 116.91 109.84C115.957 109.657 115.113 109.29 114.38 108.74C113.683 108.153 113.335 107.457 113.335 106.65C113.335 105.807 113.702 105.202 114.435 104.835C115.205 104.468 116.067 104.285 117.02 104.285C118.01 104.285 118.89 104.523 119.66 105C120.687 104.157 121.512 103.167 122.135 102.03C122.795 100.857 123.125 99.2983 123.125 97.355C123.125 95.375 122.465 93.7983 121.145 92.625C119.825 91.4517 117.882 90.865 115.315 90.865C112.785 90.865 110.842 91.0667 109.485 91.47C108.128 91.8733 106.955 92.3133 105.965 92.79C105.012 93.2667 104.15 93.7067 103.38 94.11C102.647 94.5133 101.95 94.715 101.29 94.715C100.63 94.715 100.3 94.5133 100.3 94.11C100.3 93.67 100.648 92.9733 101.345 92.02C102.042 91.0667 103.068 90.1133 104.425 89.16C107.835 86.7767 111.685 85.6033 115.975 85.64C120.265 85.64 123.803 86.4467 126.59 88.06C129.853 89.9667 131.485 92.8267 131.485 96.64C131.522 99.7933 130.697 102.415 129.01 104.505C127.323 106.595 125.233 108.098 122.74 109.015C123.29 110.225 123.73 111.527 124.06 112.92C124.427 114.313 124.775 115.597 125.105 116.77C125.435 117.943 125.802 118.915 126.205 119.685C126.645 120.455 127.158 120.84 127.745 120.84C128.368 120.84 129.102 120.492 129.945 119.795C130.825 119.062 131.687 118.273 132.53 117.43C133.373 116.587 134.125 115.817 134.785 115.12C135.482 114.387 135.977 114.02 136.27 114.02ZM112.345 94.22C112.822 94.22 113.06 94.8433 113.06 96.09C113.06 97.3367 112.987 98.51 112.84 99.61C112.51 101.737 112.088 103.717 111.575 105.55C110.255 110.537 109.595 113.452 109.595 114.295V122.38C109.595 124.36 108.843 125.717 107.34 126.45C106.643 126.78 105.965 127.092 105.305 127.385C104.682 127.678 103.967 127.825 103.16 127.825C101.62 127.825 100.85 126.065 100.85 122.545C100.85 118.988 101.675 114.515 103.325 109.125C104.975 103.735 106.698 99.6283 108.495 96.805C108.862 96.255 109.393 95.6867 110.09 95.1C110.787 94.5133 111.538 94.22 112.345 94.22ZM147.29 121.005C150.15 121.005 152.919 119.868 155.595 117.595C156.585 116.752 157.392 115.982 158.015 115.285C158.639 114.552 159.115 114.185 159.445 114.185C159.959 114.185 160.215 114.698 160.215 115.725C160.215 116.752 159.94 117.907 159.39 119.19C158.84 120.437 157.924 121.665 156.64 122.875C153.487 125.845 149.16 127.33 143.66 127.33C139.297 127.33 136.327 125.753 134.75 122.6C134.2 121.5 133.925 119.923 133.925 117.87C133.925 115.817 134.329 113.69 135.135 111.49C135.942 109.253 137.005 107.328 138.325 105.715C139.682 104.102 141.24 102.855 143 101.975C144.76 101.058 146.63 100.6 148.61 100.6C150.627 100.6 152.167 101.095 153.23 102.085C154.33 103.075 154.88 104.358 154.88 105.935C154.88 107.512 154.477 108.813 153.67 109.84C152.9 110.83 151.892 111.673 150.645 112.37C149.399 113.03 148.005 113.635 146.465 114.185C144.962 114.698 143.477 115.285 142.01 115.945V117.32C142.047 118.64 142.597 119.575 143.66 120.125C144.724 120.675 145.934 120.968 147.29 121.005ZM146.355 105.495C144.449 105.495 143.129 107.713 142.395 112.15C143.165 111.637 143.88 111.178 144.54 110.775C145.237 110.372 145.842 109.987 146.355 109.62C147.455 108.813 148.024 107.897 148.06 106.87C148.06 105.953 147.492 105.495 146.355 105.495ZM191.233 114.02C191.893 114.02 192.223 114.863 192.223 116.55C192.223 117.467 191.838 118.585 191.068 119.905C190.298 121.188 189.29 122.38 188.043 123.48C186.833 124.543 185.477 125.423 183.973 126.12C182.47 126.817 181.003 127.165 179.573 127.165C177.63 127.165 176.328 125.46 175.668 122.05C174.715 123.627 173.468 124.928 171.928 125.955C170.388 126.945 168.317 127.44 165.713 127.44C163.147 127.44 161.075 126.633 159.498 125.02C157.922 123.407 157.152 121.445 157.188 119.135C157.188 112.902 159.26 107.988 163.403 104.395C165.163 102.892 166.795 101.902 168.298 101.425C169.838 100.948 171.452 100.71 173.138 100.71C174.825 100.71 176.2 101.003 177.263 101.59C177.777 100.527 178.363 99.995 179.023 99.995C180.307 99.995 181.517 100.563 182.653 101.7C183.827 102.8 184.413 103.845 184.413 104.835C183.9 106.045 183.148 107.493 182.158 109.18C181.865 110.867 181.718 113.232 181.718 116.275C181.718 119.318 182.103 120.84 182.873 120.84C183.827 120.84 186.137 118.933 189.803 115.12C190.463 114.387 190.94 114.02 191.233 114.02ZM165.273 117.32C165.273 120.143 166.318 121.555 168.408 121.555C170.645 121.518 172.497 120.327 173.963 117.98C174.477 117.173 174.898 116.183 175.228 115.01C175.228 110.903 175.595 107.383 176.328 104.45C173.358 105.037 170.773 106.467 168.573 108.74C166.373 111.013 165.273 113.873 165.273 117.32ZM223.245 114.02C223.905 114.02 224.235 114.863 224.235 116.55C224.235 117.467 223.85 118.585 223.08 119.905C222.31 121.188 221.302 122.38 220.055 123.48C218.845 124.543 217.489 125.423 215.985 126.12C214.482 126.817 213.015 127.165 211.585 127.165C209.569 127.165 208.249 125.515 207.625 122.215C205.425 125.698 202.162 127.44 197.835 127.44C195.195 127.44 193.087 126.633 191.51 125.02C189.934 123.407 189.164 121.445 189.2 119.135C189.2 112.902 191.272 107.988 195.415 104.395C198.275 101.938 201.245 100.71 204.325 100.71C205.719 100.71 206.819 100.82 207.625 101.04L208.89 101.37C210.394 94.2933 212.135 89.5633 214.115 87.18C214.775 86.3733 215.435 85.97 216.095 85.97C217.159 85.97 218.149 86.7033 219.065 88.17C219.872 89.38 220.275 90.425 220.275 91.305C220.275 92.185 220.147 93.0467 219.89 93.89C219.634 94.7333 219.304 95.5217 218.9 96.255C218.534 96.9517 218.112 97.6483 217.635 98.345C217.159 99.005 216.682 99.6833 216.205 100.38C215.142 104.34 214.354 108.777 213.84 113.69C213.694 115.083 213.62 116.202 213.62 117.045C213.62 119.575 214.042 120.84 214.885 120.84C215.839 120.84 218.149 118.933 221.815 115.12C222.475 114.387 222.952 114.02 223.245 114.02ZM197.285 117.32C197.285 120.143 198.33 121.555 200.42 121.555C201.667 121.555 202.914 121.078 204.16 120.125C205.444 119.172 206.434 117.577 207.13 115.34C207.204 112.04 207.589 108.41 208.285 104.45C205.352 105.037 202.785 106.467 200.585 108.74C198.385 111.013 197.285 113.873 197.285 117.32ZM236.282 122.985C234.449 125.515 231.992 126.78 228.912 126.78C226.419 126.78 224.42 126.267 222.917 125.24C221.45 124.177 220.717 122.508 220.717 120.235C220.717 119.282 220.845 118.402 221.102 117.595C221.395 116.788 221.854 115.798 222.477 114.625L224.072 101.59C225.209 100.71 226.749 100.27 228.692 100.27C230.342 100.27 231.277 101.37 231.497 103.57C231.57 104.23 231.607 105.018 231.607 105.935C231.607 106.815 231.46 107.75 231.167 108.74C229.7 113.8 228.985 117.192 229.022 118.915C229.022 120.235 229.792 120.895 231.332 120.895C232.872 120.895 234.009 120.4 234.742 119.41C235.475 118.42 236.099 117.192 236.612 115.725C237.565 111.655 238.445 108.3 239.252 105.66C240.095 103.02 240.627 101.443 240.847 100.93C241.214 100.05 241.91 99.5917 242.937 99.555C243.964 99.5917 244.935 100.325 245.852 101.755C246.769 103.148 247.227 104.23 247.227 105C247.154 107.567 245.559 114.038 242.442 124.415C244.825 122.545 247.19 120.253 249.537 117.54C250.344 116.587 251.022 115.798 251.572 115.175C252.122 114.515 252.562 114.185 252.892 114.185C253.405 114.185 253.662 114.772 253.662 115.945C253.662 118.255 252.36 120.95 249.757 124.03C247.19 127.11 244.037 129.512 240.297 131.235C239.857 132.702 239.38 134.095 238.867 135.415C238.354 136.735 237.694 137.89 236.887 138.88C235.127 141.007 232.45 142.07 228.857 142.07C226.437 142.07 224.365 141.373 222.642 139.98C220.955 138.587 220.112 136.845 220.112 134.755C220.112 133.582 220.497 132.647 221.267 131.95C222.074 131.253 223.155 130.667 224.512 130.19C225.905 129.75 227.519 129.347 229.352 128.98C231.185 128.65 233.147 128.228 235.237 127.715C235.75 125.515 236.099 123.938 236.282 122.985ZM228.802 137.835C230.525 137.835 232.084 136.332 233.477 133.325C232.157 133.582 230.984 133.765 229.957 133.875C228.93 134.022 228.05 134.15 227.317 134.26C225.85 134.48 225.135 134.865 225.172 135.415C225.172 136.112 225.575 136.698 226.382 137.175C227.225 137.652 228.032 137.872 228.802 137.835Z" fill="white"/>
<path className ="second" d="M257.301 108.905C255.174 109.198 253.414 109.345 252.021 109.345C251.544 109.345 251.306 109.162 251.306 108.795C251.306 107.952 251.874 107.072 253.011 106.155C254.184 105.202 256.072 104.377 258.676 103.68C259.849 99.5 261.187 95.6683 262.691 92.185C259.024 92.3683 256.017 93.5783 253.671 95.815C253.084 96.4017 252.607 96.86 252.241 97.19C251.874 97.52 251.544 97.685 251.251 97.685C250.994 97.685 250.737 97.465 250.481 97.025C250.224 96.585 250.096 95.9983 250.096 95.265C250.132 92.4417 252.039 90.15 255.816 88.39C259.592 86.63 264.249 85.7683 269.786 85.805L286.286 86.08C287.276 86.08 287.771 86.465 287.771 87.235C287.771 87.455 287.624 87.8583 287.331 88.445C287.037 88.995 286.781 89.6 286.561 90.26C286.084 91.58 285.057 92.24 283.481 92.24H281.721L274.406 92.185H270.171C269.877 94.275 268.997 97.685 267.531 102.415L277.596 102.58C278.182 102.58 278.476 102.928 278.476 103.625C278.476 103.845 278.384 104.23 278.201 104.78C278.017 105.33 277.852 105.898 277.706 106.485C277.412 107.695 276.789 108.3 275.836 108.3L267.476 107.915H266.761C266.541 107.915 266.284 107.933 265.991 107.97C264.084 114.973 263.131 120.51 263.131 124.58C263.131 126.743 261.022 127.825 256.806 127.825C255.889 127.825 255.339 127.367 255.156 126.45C255.009 125.497 254.936 124.25 254.936 122.71C254.936 119.41 255.724 114.808 257.301 108.905ZM302.306 122.325C299.409 125.735 295.926 127.44 291.856 127.44C287.822 127.44 284.797 126.413 282.781 124.36C280.764 122.27 279.774 119.685 279.811 116.605C279.774 112.242 281.149 108.483 283.936 105.33C286.722 102.177 290.371 100.6 294.881 100.6C296.934 100.6 298.584 100.857 299.831 101.37C301.994 102.25 303.076 103.075 303.076 103.845C303.076 104.432 301.554 104.743 298.511 104.78C295.504 104.78 292.974 105.825 290.921 107.915C288.904 109.968 287.896 112.572 287.896 115.725C287.896 117.375 288.372 118.768 289.326 119.905C290.316 121.005 291.691 121.555 293.451 121.555C295.247 121.555 296.732 121.188 297.906 120.455C295.302 118.695 294.001 116.147 294.001 112.81C293.964 111.05 294.587 109.455 295.871 108.025C297.191 106.558 298.859 105.825 300.876 105.825C302.929 105.788 304.396 106.338 305.276 107.475C306.156 108.612 306.596 110.078 306.596 111.875C306.596 113.635 306.174 115.505 305.331 117.485H305.661C307.274 117.448 308.667 116.88 309.841 115.78C310.281 115.34 310.647 114.955 310.941 114.625C311.271 114.295 311.601 114.13 311.931 114.13C312.444 114.13 312.701 114.735 312.701 115.945C312.701 118.182 312.041 119.868 310.721 121.005C309.401 122.105 307.934 122.655 306.321 122.655C304.744 122.655 303.406 122.545 302.306 122.325ZM301.811 115.945C302.434 114.625 302.746 113.342 302.746 112.095C302.746 110.848 302.342 110.225 301.536 110.225C301.206 110.225 300.931 110.463 300.711 110.94C300.491 111.417 300.381 111.875 300.381 112.315C300.381 113.782 300.857 114.992 301.811 115.945ZM332.169 122.325C329.272 125.735 325.789 127.44 321.719 127.44C317.685 127.44 314.66 126.413 312.644 124.36C310.627 122.27 309.637 119.685 309.674 116.605C309.637 112.242 311.012 108.483 313.799 105.33C316.585 102.177 320.234 100.6 324.744 100.6C326.797 100.6 328.447 100.857 329.694 101.37C331.857 102.25 332.939 103.075 332.939 103.845C332.939 104.432 331.417 104.743 328.374 104.78C325.367 104.78 322.837 105.825 320.784 107.915C318.767 109.968 317.759 112.572 317.759 115.725C317.759 117.375 318.235 118.768 319.189 119.905C320.179 121.005 321.554 121.555 323.314 121.555C325.11 121.555 326.595 121.188 327.769 120.455C325.165 118.695 323.864 116.147 323.864 112.81C323.827 111.05 324.45 109.455 325.734 108.025C327.054 106.558 328.722 105.825 330.739 105.825C332.792 105.788 334.259 106.338 335.139 107.475C336.019 108.612 336.459 110.078 336.459 111.875C336.459 113.635 336.037 115.505 335.194 117.485H335.524C337.137 117.448 338.53 116.88 339.704 115.78C340.144 115.34 340.51 114.955 340.804 114.625C341.134 114.295 341.464 114.13 341.794 114.13C342.307 114.13 342.564 114.735 342.564 115.945C342.564 118.182 341.904 119.868 340.584 121.005C339.264 122.105 337.797 122.655 336.184 122.655C334.607 122.655 333.269 122.545 332.169 122.325ZM331.674 115.945C332.297 114.625 332.609 113.342 332.609 112.095C332.609 110.848 332.205 110.225 331.399 110.225C331.069 110.225 330.794 110.463 330.574 110.94C330.354 111.417 330.244 111.875 330.244 112.315C330.244 113.782 330.72 114.992 331.674 115.945ZM373.582 114.02C374.242 114.02 374.572 114.863 374.572 116.55C374.572 117.467 374.187 118.585 373.417 119.905C372.647 121.188 371.639 122.38 370.392 123.48C369.182 124.543 367.825 125.423 366.322 126.12C364.819 126.817 363.352 127.165 361.922 127.165C359.905 127.165 358.585 125.515 357.962 122.215C355.762 125.698 352.499 127.44 348.172 127.44C345.532 127.44 343.424 126.633 341.847 125.02C340.27 123.407 339.5 121.445 339.537 119.135C339.537 112.902 341.609 107.988 345.752 104.395C348.612 101.938 351.582 100.71 354.662 100.71C356.055 100.71 357.155 100.82 357.962 101.04L359.227 101.37C360.73 94.2933 362.472 89.5633 364.452 87.18C365.112 86.3733 365.772 85.97 366.432 85.97C367.495 85.97 368.485 86.7033 369.402 88.17C370.209 89.38 370.612 90.425 370.612 91.305C370.612 92.185 370.484 93.0467 370.227 93.89C369.97 94.7333 369.64 95.5217 369.237 96.255C368.87 96.9517 368.449 97.6483 367.972 98.345C367.495 99.005 367.019 99.6833 366.542 100.38C365.479 104.34 364.69 108.777 364.177 113.69C364.03 115.083 363.957 116.202 363.957 117.045C363.957 119.575 364.379 120.84 365.222 120.84C366.175 120.84 368.485 118.933 372.152 115.12C372.812 114.387 373.289 114.02 373.582 114.02ZM347.622 117.32C347.622 120.143 348.667 121.555 350.757 121.555C352.004 121.555 353.25 121.078 354.497 120.125C355.78 119.172 356.77 117.577 357.467 115.34C357.54 112.04 357.925 108.41 358.622 104.45C355.689 105.037 353.122 106.467 350.922 108.74C348.722 111.013 347.622 113.873 347.622 117.32Z" fill="#FF4141"/>
<path className ="third" d="M218.5 132.5H3C29.7504 45.0631 114 12 218.5 31M358.5 66H431.5M431.5 110.5H514M358.5 151.5H431.5" stroke="white" stroke-width="3"/>
<g filter="url(#filter0_d)">
<path d="M188.5 14C188.5 21.0679 183.42 26.5 177.5 26.5C171.58 26.5 166.5 21.0679 166.5 14C166.5 6.93208 171.58 1.5 177.5 1.5C183.42 1.5 188.5 6.93208 188.5 14Z" stroke="white" stroke-width="3"/>
</g>
<defs>
<filter id="filter0_d" x="161" y="0" width="33" height="36" filterUnits="userSpaceOnUse" color-interpolation-filters="sRGB">
<feFlood flood-opacity="0" result="BackgroundImageFix"/>
<feColorMatrix in="SourceAlpha" type="matrix" values="0 0 0 0 0 0 0 0 0 0 0 0 0 0 0 0 0 0 127 0"/>
<feOffset dy="4"/>
<feGaussianBlur stdDeviation="2"/>
<feColorMatrix type="matrix" values="0 0 0 0 0 0 0 0 0 0 0 0 0 0 0 0 0 0 0.25 0"/>
<feBlend mode="normal" in2="BackgroundImageFix" result="effect1_dropShadow"/>
<feBlend mode="normal" in="SourceGraphic" in2="effect1_dropShadow" result="shape"/>
</filter>
</defs>
</svg>
