<svg width="275" height="58" viewBox="0 0 275 58" fill="none" xmlns="http://www.w3.org/2000/svg">
<path d="M36.27 29.02C36.8933 29.02 37.205 29.8633 37.205 31.55C37.205 32.4667 36.82 33.585 36.05 34.905C35.28 36.1883 34.2717 37.38 33.025 38.48C31.815 39.5433 30.4583 40.4233 28.955 41.12C27.4517 41.8167 26.0217 42.165 24.665 42.165C23.3083 42.165 22.245 41.9083 21.475 41.395C20.705 40.8817 20.1 40.185 19.66 39.305C19.0367 38.0583 18.5233 35.6933 18.12 32.21C17.7167 28.69 17.3133 26.2333 16.91 24.84C15.9567 24.6567 15.1133 24.29 14.38 23.74C13.6833 23.1533 13.335 22.4567 13.335 21.65C13.335 20.8067 13.7017 20.2017 14.435 19.835C15.205 19.4683 16.0667 19.285 17.02 19.285C18.01 19.285 18.89 19.5233 19.66 20C20.6867 19.1567 21.5117 18.1667 22.135 17.03C22.795 15.8567 23.125 14.2983 23.125 12.355C23.125 10.375 22.465 8.79833 21.145 7.625C19.825 6.45167 17.8817 5.865 15.315 5.865C12.785 5.865 10.8417 6.06667 9.485 6.47C8.12833 6.87333 6.955 7.31333 5.965 7.79C5.01167 8.26666 4.15 8.70666 3.38 9.11C2.64667 9.51333 1.95 9.715 1.29 9.715C0.63 9.715 0.3 9.51333 0.3 9.11C0.3 8.67 0.648333 7.97333 1.345 7.02C2.04167 6.06666 3.06833 5.11333 4.425 4.16C7.835 1.77667 11.685 0.603332 15.975 0.639998C20.265 0.639998 23.8033 1.44667 26.59 3.06C29.8533 4.96667 31.485 7.82667 31.485 11.64C31.5217 14.7933 30.6967 17.415 29.01 19.505C27.3233 21.595 25.2333 23.0983 22.74 24.015C23.29 25.225 23.73 26.5267 24.06 27.92C24.4267 29.3133 24.775 30.5967 25.105 31.77C25.435 32.9433 25.8017 33.915 26.205 34.685C26.645 35.455 27.1583 35.84 27.745 35.84C28.3683 35.84 29.1017 35.4917 29.945 34.795C30.825 34.0617 31.6867 33.2733 32.53 32.43C33.3733 31.5867 34.125 30.8167 34.785 30.12C35.4817 29.3867 35.9767 29.02 36.27 29.02ZM12.345 9.22C12.8217 9.22 13.06 9.84333 13.06 11.09C13.06 12.3367 12.9867 13.51 12.84 14.61C12.51 16.7367 12.0883 18.7167 11.575 20.55C10.255 25.5367 9.595 28.4517 9.595 29.295V37.38C9.595 39.36 8.84333 40.7167 7.34 41.45C6.64333 41.78 5.965 42.0917 5.305 42.385C4.68167 42.6783 3.96667 42.825 3.16 42.825C1.62 42.825 0.85 41.065 0.85 37.545C0.85 33.9883 1.675 29.515 3.325 24.125C4.975 18.735 6.69833 14.6283 8.495 11.805C8.86167 11.255 9.39333 10.6867 10.09 10.1C10.7867 9.51333 11.5383 9.22 12.345 9.22ZM47.2902 36.005C50.1502 36.005 52.9185 34.8683 55.5952 32.595C56.5852 31.7517 57.3919 30.9817 58.0152 30.285C58.6385 29.5517 59.1152 29.185 59.4452 29.185C59.9585 29.185 60.2152 29.6983 60.2152 30.725C60.2152 31.7517 59.9402 32.9067 59.3902 34.19C58.8402 35.4367 57.9235 36.665 56.6402 37.875C53.4869 40.845 49.1602 42.33 43.6602 42.33C39.2969 42.33 36.3269 40.7533 34.7502 37.6C34.2002 36.5 33.9252 34.9233 33.9252 32.87C33.9252 30.8167 34.3285 28.69 35.1352 26.49C35.9419 24.2533 37.0052 22.3283 38.3252 20.715C39.6819 19.1017 41.2402 17.855 43.0002 16.975C44.7602 16.0583 46.6302 15.6 48.6102 15.6C50.6269 15.6 52.1669 16.095 53.2302 17.085C54.3302 18.075 54.8802 19.3583 54.8802 20.935C54.8802 22.5117 54.4769 23.8133 53.6702 24.84C52.9002 25.83 51.8919 26.6733 50.6452 27.37C49.3985 28.03 48.0052 28.635 46.4652 29.185C44.9619 29.6983 43.4769 30.285 42.0102 30.945V32.32C42.0469 33.64 42.5969 34.575 43.6602 35.125C44.7235 35.675 45.9335 35.9683 47.2902 36.005ZM46.3552 20.495C44.4485 20.495 43.1285 22.7133 42.3952 27.15C43.1652 26.6367 43.8802 26.1783 44.5402 25.775C45.2369 25.3717 45.8419 24.9867 46.3552 24.62C47.4552 23.8133 48.0235 22.8967 48.0602 21.87C48.0602 20.9533 47.4919 20.495 46.3552 20.495ZM91.2335 29.02C91.8935 29.02 92.2235 29.8633 92.2235 31.55C92.2235 32.4667 91.8385 33.585 91.0685 34.905C90.2985 36.1883 89.2901 37.38 88.0435 38.48C86.8335 39.5433 85.4768 40.4233 83.9735 41.12C82.4701 41.8167 81.0035 42.165 79.5735 42.165C77.6301 42.165 76.3285 40.46 75.6685 37.05C74.7151 38.6267 73.4685 39.9283 71.9285 40.955C70.3885 41.945 68.3168 42.44 65.7135 42.44C63.1468 42.44 61.0751 41.6333 59.4985 40.02C57.9218 38.4067 57.1518 36.445 57.1885 34.135C57.1885 27.9017 59.2601 22.9883 63.4035 19.395C65.1635 17.8917 66.7951 16.9017 68.2985 16.425C69.8385 15.9483 71.4518 15.71 73.1385 15.71C74.8251 15.71 76.2001 16.0033 77.2635 16.59C77.7768 15.5267 78.3635 14.995 79.0235 14.995C80.3068 14.995 81.5168 15.5633 82.6535 16.7C83.8268 17.8 84.4135 18.845 84.4135 19.835C83.9001 21.045 83.1485 22.4933 82.1585 24.18C81.8651 25.8667 81.7185 28.2317 81.7185 31.275C81.7185 34.3183 82.1035 35.84 82.8735 35.84C83.8268 35.84 86.1368 33.9333 89.8035 30.12C90.4635 29.3867 90.9401 29.02 91.2335 29.02ZM65.2735 32.32C65.2735 35.1433 66.3185 36.555 68.4085 36.555C70.6451 36.5183 72.4968 35.3267 73.9635 32.98C74.4768 32.1733 74.8985 31.1833 75.2285 30.01C75.2285 25.9033 75.5951 22.3833 76.3285 19.45C73.3585 20.0367 70.7735 21.4667 68.5735 23.74C66.3735 26.0133 65.2735 28.8733 65.2735 32.32ZM123.245 29.02C123.905 29.02 124.235 29.8633 124.235 31.55C124.235 32.4667 123.85 33.585 123.08 34.905C122.31 36.1883 121.302 37.38 120.055 38.48C118.845 39.5433 117.489 40.4233 115.985 41.12C114.482 41.8167 113.015 42.165 111.585 42.165C109.569 42.165 108.249 40.515 107.625 37.215C105.425 40.6983 102.162 42.44 97.8352 42.44C95.1952 42.44 93.0869 41.6333 91.5102 40.02C89.9335 38.4067 89.1635 36.445 89.2002 34.135C89.2002 27.9017 91.2719 22.9883 95.4152 19.395C98.2752 16.9383 101.245 15.71 104.325 15.71C105.719 15.71 106.819 15.82 107.625 16.04L108.89 16.37C110.394 9.29333 112.135 4.56333 114.115 2.18C114.775 1.37333 115.435 0.969997 116.095 0.969997C117.159 0.969997 118.149 1.70333 119.065 3.17C119.872 4.38 120.275 5.425 120.275 6.305C120.275 7.185 120.147 8.04667 119.89 8.89C119.634 9.73333 119.304 10.5217 118.9 11.255C118.534 11.9517 118.112 12.6483 117.635 13.345C117.159 14.005 116.682 14.6833 116.205 15.38C115.142 19.34 114.354 23.7767 113.84 28.69C113.694 30.0833 113.62 31.2017 113.62 32.045C113.62 34.575 114.042 35.84 114.885 35.84C115.839 35.84 118.149 33.9333 121.815 30.12C122.475 29.3867 122.952 29.02 123.245 29.02ZM97.2852 32.32C97.2852 35.1433 98.3302 36.555 100.42 36.555C101.667 36.555 102.914 36.0783 104.16 35.125C105.444 34.1717 106.434 32.5767 107.13 30.34C107.204 27.04 107.589 23.41 108.285 19.45C105.352 20.0367 102.785 21.4667 100.585 23.74C98.3852 26.0133 97.2852 28.8733 97.2852 32.32ZM136.282 37.985C134.449 40.515 131.992 41.78 128.912 41.78C126.419 41.78 124.42 41.2667 122.917 40.24C121.45 39.1767 120.717 37.5083 120.717 35.235C120.717 34.2817 120.845 33.4017 121.102 32.595C121.395 31.7883 121.854 30.7983 122.477 29.625L124.072 16.59C125.209 15.71 126.749 15.27 128.692 15.27C130.342 15.27 131.277 16.37 131.497 18.57C131.57 19.23 131.607 20.0183 131.607 20.935C131.607 21.815 131.46 22.75 131.167 23.74C129.7 28.8 128.985 32.1917 129.022 33.915C129.022 35.235 129.792 35.895 131.332 35.895C132.872 35.895 134.009 35.4 134.742 34.41C135.475 33.42 136.099 32.1917 136.612 30.725C137.565 26.655 138.445 23.3 139.252 20.66C140.095 18.02 140.627 16.4433 140.847 15.93C141.214 15.05 141.91 14.5917 142.937 14.555C143.964 14.5917 144.935 15.325 145.852 16.755C146.769 18.1483 147.227 19.23 147.227 20C147.154 22.5667 145.559 29.0383 142.442 39.415C144.825 37.545 147.19 35.2533 149.537 32.54C150.344 31.5867 151.022 30.7983 151.572 30.175C152.122 29.515 152.562 29.185 152.892 29.185C153.405 29.185 153.662 29.7717 153.662 30.945C153.662 33.255 152.36 35.95 149.757 39.03C147.19 42.11 144.037 44.5117 140.297 46.235C139.857 47.7017 139.38 49.095 138.867 50.415C138.354 51.735 137.694 52.89 136.887 53.88C135.127 56.0067 132.45 57.07 128.857 57.07C126.437 57.07 124.365 56.3733 122.642 54.98C120.955 53.5867 120.112 51.845 120.112 49.755C120.112 48.5817 120.497 47.6467 121.267 46.95C122.074 46.2533 123.155 45.6667 124.512 45.19C125.905 44.75 127.519 44.3467 129.352 43.98C131.185 43.65 133.147 43.2283 135.237 42.715C135.75 40.515 136.099 38.9383 136.282 37.985ZM128.802 52.835C130.525 52.835 132.084 51.3317 133.477 48.325C132.157 48.5817 130.984 48.765 129.957 48.875C128.93 49.0217 128.05 49.15 127.317 49.26C125.85 49.48 125.135 49.865 125.172 50.415C125.172 51.1117 125.575 51.6983 126.382 52.175C127.225 52.6517 128.032 52.8717 128.802 52.835Z" fill="white"/>
<path d="M157.301 23.905C155.174 24.1983 153.414 24.345 152.021 24.345C151.544 24.345 151.306 24.1617 151.306 23.795C151.306 22.9517 151.874 22.0717 153.011 21.155C154.184 20.2017 156.072 19.3767 158.676 18.68C159.849 14.5 161.187 10.6683 162.691 7.185C159.024 7.36833 156.017 8.57833 153.671 10.815C153.084 11.4017 152.607 11.86 152.241 12.19C151.874 12.52 151.544 12.685 151.251 12.685C150.994 12.685 150.737 12.465 150.481 12.025C150.224 11.585 150.096 10.9983 150.096 10.265C150.132 7.44166 152.039 5.15 155.816 3.39C159.592 1.63 164.249 0.768331 169.786 0.804999L186.286 1.08C187.276 1.08 187.771 1.465 187.771 2.235C187.771 2.455 187.624 2.85833 187.331 3.445C187.037 3.995 186.781 4.6 186.561 5.26C186.084 6.58 185.057 7.24 183.481 7.24H181.721L174.406 7.185H170.171C169.877 9.275 168.997 12.685 167.531 17.415L177.596 17.58C178.182 17.58 178.476 17.9283 178.476 18.625C178.476 18.845 178.384 19.23 178.201 19.78C178.017 20.33 177.852 20.8983 177.706 21.485C177.412 22.695 176.789 23.3 175.836 23.3L167.476 22.915H166.761C166.541 22.915 166.284 22.9333 165.991 22.97C164.084 29.9733 163.131 35.51 163.131 39.58C163.131 41.7433 161.022 42.825 156.806 42.825C155.889 42.825 155.339 42.3667 155.156 41.45C155.009 40.4967 154.936 39.25 154.936 37.71C154.936 34.41 155.724 29.8083 157.301 23.905ZM202.306 37.325C199.409 40.735 195.926 42.44 191.856 42.44C187.822 42.44 184.797 41.4133 182.781 39.36C180.764 37.27 179.774 34.685 179.811 31.605C179.774 27.2417 181.149 23.4833 183.936 20.33C186.722 17.1767 190.371 15.6 194.881 15.6C196.934 15.6 198.584 15.8567 199.831 16.37C201.994 17.25 203.076 18.075 203.076 18.845C203.076 19.4317 201.554 19.7433 198.511 19.78C195.504 19.78 192.974 20.825 190.921 22.915C188.904 24.9683 187.896 27.5717 187.896 30.725C187.896 32.375 188.372 33.7683 189.326 34.905C190.316 36.005 191.691 36.555 193.451 36.555C195.247 36.555 196.732 36.1883 197.906 35.455C195.302 33.695 194.001 31.1467 194.001 27.81C193.964 26.05 194.587 24.455 195.871 23.025C197.191 21.5583 198.859 20.825 200.876 20.825C202.929 20.7883 204.396 21.3383 205.276 22.475C206.156 23.6117 206.596 25.0783 206.596 26.875C206.596 28.635 206.174 30.505 205.331 32.485H205.661C207.274 32.4483 208.667 31.88 209.841 30.78C210.281 30.34 210.647 29.955 210.941 29.625C211.271 29.295 211.601 29.13 211.931 29.13C212.444 29.13 212.701 29.735 212.701 30.945C212.701 33.1817 212.041 34.8683 210.721 36.005C209.401 37.105 207.934 37.655 206.321 37.655C204.744 37.655 203.406 37.545 202.306 37.325ZM201.811 30.945C202.434 29.625 202.746 28.3417 202.746 27.095C202.746 25.8483 202.342 25.225 201.536 25.225C201.206 25.225 200.931 25.4633 200.711 25.94C200.491 26.4167 200.381 26.875 200.381 27.315C200.381 28.7817 200.857 29.9917 201.811 30.945ZM232.169 37.325C229.272 40.735 225.789 42.44 221.719 42.44C217.685 42.44 214.66 41.4133 212.644 39.36C210.627 37.27 209.637 34.685 209.674 31.605C209.637 27.2417 211.012 23.4833 213.799 20.33C216.585 17.1767 220.234 15.6 224.744 15.6C226.797 15.6 228.447 15.8567 229.694 16.37C231.857 17.25 232.939 18.075 232.939 18.845C232.939 19.4317 231.417 19.7433 228.374 19.78C225.367 19.78 222.837 20.825 220.784 22.915C218.767 24.9683 217.759 27.5717 217.759 30.725C217.759 32.375 218.235 33.7683 219.189 34.905C220.179 36.005 221.554 36.555 223.314 36.555C225.11 36.555 226.595 36.1883 227.769 35.455C225.165 33.695 223.864 31.1467 223.864 27.81C223.827 26.05 224.45 24.455 225.734 23.025C227.054 21.5583 228.722 20.825 230.739 20.825C232.792 20.7883 234.259 21.3383 235.139 22.475C236.019 23.6117 236.459 25.0783 236.459 26.875C236.459 28.635 236.037 30.505 235.194 32.485H235.524C237.137 32.4483 238.53 31.88 239.704 30.78C240.144 30.34 240.51 29.955 240.804 29.625C241.134 29.295 241.464 29.13 241.794 29.13C242.307 29.13 242.564 29.735 242.564 30.945C242.564 33.1817 241.904 34.8683 240.584 36.005C239.264 37.105 237.797 37.655 236.184 37.655C234.607 37.655 233.269 37.545 232.169 37.325ZM231.674 30.945C232.297 29.625 232.609 28.3417 232.609 27.095C232.609 25.8483 232.205 25.225 231.399 25.225C231.069 25.225 230.794 25.4633 230.574 25.94C230.354 26.4167 230.244 26.875 230.244 27.315C230.244 28.7817 230.72 29.9917 231.674 30.945ZM273.582 29.02C274.242 29.02 274.572 29.8633 274.572 31.55C274.572 32.4667 274.187 33.585 273.417 34.905C272.647 36.1883 271.639 37.38 270.392 38.48C269.182 39.5433 267.825 40.4233 266.322 41.12C264.819 41.8167 263.352 42.165 261.922 42.165C259.905 42.165 258.585 40.515 257.962 37.215C255.762 40.6983 252.499 42.44 248.172 42.44C245.532 42.44 243.424 41.6333 241.847 40.02C240.27 38.4067 239.5 36.445 239.537 34.135C239.537 27.9017 241.609 22.9883 245.752 19.395C248.612 16.9383 251.582 15.71 254.662 15.71C256.055 15.71 257.155 15.82 257.962 16.04L259.227 16.37C260.73 9.29333 262.472 4.56333 264.452 2.18C265.112 1.37333 265.772 0.969997 266.432 0.969997C267.495 0.969997 268.485 1.70333 269.402 3.17C270.209 4.38 270.612 5.425 270.612 6.305C270.612 7.185 270.484 8.04667 270.227 8.89C269.97 9.73333 269.64 10.5217 269.237 11.255C268.87 11.9517 268.449 12.6483 267.972 13.345C267.495 14.005 267.019 14.6833 266.542 15.38C265.479 19.34 264.69 23.7767 264.177 28.69C264.03 30.0833 263.957 31.2017 263.957 32.045C263.957 34.575 264.379 35.84 265.222 35.84C266.175 35.84 268.485 33.9333 272.152 30.12C272.812 29.3867 273.289 29.02 273.582 29.02ZM247.622 32.32C247.622 35.1433 248.667 36.555 250.757 36.555C252.004 36.555 253.25 36.0783 254.497 35.125C255.78 34.1717 256.77 32.5767 257.467 30.34C257.54 27.04 257.925 23.41 258.622 19.45C255.689 20.0367 253.122 21.4667 250.922 23.74C248.722 26.0133 247.622 28.8733 247.622 32.32Z" fill="#FF4141"/>
</svg>
